<mxfile host="Electron" agent="Mozilla/5.0 (X11; Linux x86_64) AppleWebKit/537.36 (KHTML, like Gecko) draw.io/28.0.6 Chrome/138.0.7204.185 Electron/37.2.6 Safari/537.36" version="28.0.6">
  <diagram name="use_case" id="fMJ0F8llkvYSlPsCtb_I">
    <mxGraphModel dx="318" dy="920" grid="1" gridSize="10" guides="1" tooltips="1" connect="1" arrows="1" fold="1" page="1" pageScale="1" pageWidth="1400" pageHeight="850" math="0" shadow="0">
      <root>
        <mxCell id="0" />
        <mxCell id="1" parent="0" />
        <mxCell id="qKqtRNuWGOEyaz1-3S3j-5" style="edgeStyle=orthogonalEdgeStyle;rounded=0;orthogonalLoop=1;jettySize=auto;html=1;exitX=1;exitY=0.3333333333333333;exitDx=0;exitDy=0;exitPerimeter=0;entryX=0;entryY=0.5;entryDx=0;entryDy=0;" parent="1" source="qKqtRNuWGOEyaz1-3S3j-1" target="qKqtRNuWGOEyaz1-3S3j-3" edge="1">
          <mxGeometry relative="1" as="geometry" />
        </mxCell>
        <mxCell id="qKqtRNuWGOEyaz1-3S3j-6" style="edgeStyle=orthogonalEdgeStyle;rounded=0;orthogonalLoop=1;jettySize=auto;html=1;exitX=1;exitY=1;exitDx=0;exitDy=0;exitPerimeter=0;entryX=0;entryY=0.5;entryDx=0;entryDy=0;" parent="1" source="qKqtRNuWGOEyaz1-3S3j-1" target="qKqtRNuWGOEyaz1-3S3j-4" edge="1">
          <mxGeometry relative="1" as="geometry" />
        </mxCell>
        <mxCell id="PAoX3o5EHXqlJZKn4egW-5" style="edgeStyle=orthogonalEdgeStyle;rounded=0;orthogonalLoop=1;jettySize=auto;html=1;exitX=0.5;exitY=0;exitDx=0;exitDy=0;exitPerimeter=0;entryX=0;entryY=0.5;entryDx=0;entryDy=0;" parent="1" source="qKqtRNuWGOEyaz1-3S3j-1" target="PAoX3o5EHXqlJZKn4egW-4" edge="1">
          <mxGeometry relative="1" as="geometry" />
        </mxCell>
        <mxCell id="qKqtRNuWGOEyaz1-3S3j-1" value="Technicien" style="shape=umlActor;verticalLabelPosition=bottom;verticalAlign=top;html=1;outlineConnect=0;" parent="1" vertex="1">
          <mxGeometry x="40" y="260" width="30" height="60" as="geometry" />
        </mxCell>
        <mxCell id="Uzjwu6fWjrmcTb8bUyvd-10" style="edgeStyle=orthogonalEdgeStyle;rounded=0;orthogonalLoop=1;jettySize=auto;html=1;exitX=0.5;exitY=0;exitDx=0;exitDy=0;exitPerimeter=0;entryX=1;entryY=0.5;entryDx=0;entryDy=0;" edge="1" parent="1" source="qKqtRNuWGOEyaz1-3S3j-2" target="Uzjwu6fWjrmcTb8bUyvd-4">
          <mxGeometry relative="1" as="geometry">
            <Array as="points">
              <mxPoint x="645" y="100" />
              <mxPoint x="330" y="100" />
            </Array>
          </mxGeometry>
        </mxCell>
        <mxCell id="qKqtRNuWGOEyaz1-3S3j-2" value="Admin" style="shape=umlActor;verticalLabelPosition=bottom;verticalAlign=top;html=1;outlineConnect=0;" parent="1" vertex="1">
          <mxGeometry x="630" y="262.5" width="30" height="60" as="geometry" />
        </mxCell>
        <mxCell id="qKqtRNuWGOEyaz1-3S3j-3" value="auth" style="ellipse;whiteSpace=wrap;html=1;" parent="1" vertex="1">
          <mxGeometry x="140" y="255" width="80" height="50" as="geometry" />
        </mxCell>
        <mxCell id="qKqtRNuWGOEyaz1-3S3j-4" value="Modifier&lt;br&gt;Saisie" style="ellipse;whiteSpace=wrap;html=1;" parent="1" vertex="1">
          <mxGeometry x="140" y="390" width="80" height="50" as="geometry" />
        </mxCell>
        <mxCell id="PAoX3o5EHXqlJZKn4egW-4" value="Saisir consomation" style="ellipse;whiteSpace=wrap;html=1;" parent="1" vertex="1">
          <mxGeometry x="140" y="130" width="80" height="50" as="geometry" />
        </mxCell>
        <mxCell id="PAoX3o5EHXqlJZKn4egW-8" value="&amp;lt;&amp;lt;include&amp;gt;&amp;gt;" style="html=1;verticalAlign=bottom;labelBackgroundColor=none;endArrow=open;endFill=0;dashed=1;rounded=0;entryX=0.5;entryY=1;entryDx=0;entryDy=0;exitX=0.5;exitY=0;exitDx=0;exitDy=0;" parent="1" source="qKqtRNuWGOEyaz1-3S3j-3" target="PAoX3o5EHXqlJZKn4egW-4" edge="1">
          <mxGeometry width="160" relative="1" as="geometry">
            <mxPoint x="260" y="470" as="sourcePoint" />
            <mxPoint x="420" y="470" as="targetPoint" />
          </mxGeometry>
        </mxCell>
        <mxCell id="PAoX3o5EHXqlJZKn4egW-9" value="&amp;lt;&amp;lt;include&amp;gt;&amp;gt;" style="html=1;verticalAlign=bottom;labelBackgroundColor=none;endArrow=open;endFill=0;dashed=1;rounded=0;exitX=0.5;exitY=1;exitDx=0;exitDy=0;entryX=0.5;entryY=0;entryDx=0;entryDy=0;" parent="1" source="qKqtRNuWGOEyaz1-3S3j-3" target="qKqtRNuWGOEyaz1-3S3j-4" edge="1">
          <mxGeometry width="160" relative="1" as="geometry">
            <mxPoint x="179.41" y="385" as="sourcePoint" />
            <mxPoint x="290" y="350" as="targetPoint" />
          </mxGeometry>
        </mxCell>
        <mxCell id="Uzjwu6fWjrmcTb8bUyvd-1" style="edgeStyle=orthogonalEdgeStyle;rounded=0;orthogonalLoop=1;jettySize=auto;html=1;exitX=1;exitY=0.3333333333333333;exitDx=0;exitDy=0;exitPerimeter=0;entryX=0;entryY=0.5;entryDx=0;entryDy=0;" edge="1" parent="1" source="PAoX3o5EHXqlJZKn4egW-10" target="PAoX3o5EHXqlJZKn4egW-11">
          <mxGeometry relative="1" as="geometry" />
        </mxCell>
        <mxCell id="PAoX3o5EHXqlJZKn4egW-10" value="Utilisateur" style="shape=umlActor;verticalLabelPosition=bottom;verticalAlign=top;html=1;outlineConnect=0;" parent="1" vertex="1">
          <mxGeometry x="40" y="530" width="30" height="60" as="geometry" />
        </mxCell>
        <mxCell id="PAoX3o5EHXqlJZKn4egW-11" value="auth" style="ellipse;whiteSpace=wrap;html=1;" parent="1" vertex="1">
          <mxGeometry x="150" y="480" width="80" height="50" as="geometry" />
        </mxCell>
        <mxCell id="PAoX3o5EHXqlJZKn4egW-12" value="Consulter statistiques" style="ellipse;whiteSpace=wrap;html=1;" parent="1" vertex="1">
          <mxGeometry x="150" y="600" width="80" height="50" as="geometry" />
        </mxCell>
        <mxCell id="Uzjwu6fWjrmcTb8bUyvd-2" style="edgeStyle=orthogonalEdgeStyle;rounded=0;orthogonalLoop=1;jettySize=auto;html=1;exitX=1;exitY=1;exitDx=0;exitDy=0;exitPerimeter=0;entryX=0;entryY=0.5;entryDx=0;entryDy=0;" edge="1" parent="1" source="PAoX3o5EHXqlJZKn4egW-10" target="PAoX3o5EHXqlJZKn4egW-12">
          <mxGeometry relative="1" as="geometry" />
        </mxCell>
        <mxCell id="Uzjwu6fWjrmcTb8bUyvd-3" value="&amp;lt;&amp;lt;include&amp;gt;&amp;gt;" style="html=1;verticalAlign=bottom;labelBackgroundColor=none;endArrow=open;endFill=0;dashed=1;rounded=0;exitX=0.5;exitY=1;exitDx=0;exitDy=0;" edge="1" parent="1" source="PAoX3o5EHXqlJZKn4egW-11" target="PAoX3o5EHXqlJZKn4egW-12">
          <mxGeometry width="160" relative="1" as="geometry">
            <mxPoint x="50" y="450" as="sourcePoint" />
            <mxPoint x="210" y="450" as="targetPoint" />
          </mxGeometry>
        </mxCell>
        <mxCell id="Uzjwu6fWjrmcTb8bUyvd-4" value="auth" style="ellipse;whiteSpace=wrap;html=1;" vertex="1" parent="1">
          <mxGeometry x="250" y="70" width="80" height="50" as="geometry" />
        </mxCell>
        <mxCell id="Uzjwu6fWjrmcTb8bUyvd-15" value="Gerer Periodes et prix" style="ellipse;whiteSpace=wrap;html=1;" vertex="1" parent="1">
          <mxGeometry x="430" y="240" width="80" height="50" as="geometry" />
        </mxCell>
        <mxCell id="Uzjwu6fWjrmcTb8bUyvd-16" value="Consulter statistiques&lt;br&gt;Admin" style="ellipse;whiteSpace=wrap;html=1;" vertex="1" parent="1">
          <mxGeometry x="430" y="322.5" width="80" height="50" as="geometry" />
        </mxCell>
        <mxCell id="Uzjwu6fWjrmcTb8bUyvd-17" value="Saisir consomation&lt;br&gt;admin" style="ellipse;whiteSpace=wrap;html=1;" vertex="1" parent="1">
          <mxGeometry x="430" y="160" width="80" height="50" as="geometry" />
        </mxCell>
        <mxCell id="Uzjwu6fWjrmcTb8bUyvd-19" value="Modifer&lt;br&gt;Saisie&lt;br&gt;admin" style="ellipse;whiteSpace=wrap;html=1;" vertex="1" parent="1">
          <mxGeometry x="430" y="410" width="80" height="50" as="geometry" />
        </mxCell>
        <mxCell id="Uzjwu6fWjrmcTb8bUyvd-20" value="Exporter&lt;br&gt;Rapport" style="ellipse;whiteSpace=wrap;html=1;" vertex="1" parent="1">
          <mxGeometry x="430" y="500" width="80" height="50" as="geometry" />
        </mxCell>
        <mxCell id="Uzjwu6fWjrmcTb8bUyvd-21" value="Gerer&lt;br&gt;Utilisateur" style="ellipse;whiteSpace=wrap;html=1;" vertex="1" parent="1">
          <mxGeometry x="430" y="610" width="80" height="50" as="geometry" />
        </mxCell>
        <mxCell id="Uzjwu6fWjrmcTb8bUyvd-28" style="edgeStyle=orthogonalEdgeStyle;rounded=0;orthogonalLoop=1;jettySize=auto;html=1;exitX=0.5;exitY=0;exitDx=0;exitDy=0;entryX=1;entryY=0.5;entryDx=0;entryDy=0;" edge="1" parent="1" source="Uzjwu6fWjrmcTb8bUyvd-24" target="Uzjwu6fWjrmcTb8bUyvd-21">
          <mxGeometry relative="1" as="geometry" />
        </mxCell>
        <mxCell id="Uzjwu6fWjrmcTb8bUyvd-24" value="Supprimer&lt;br&gt;Utilisateur" style="ellipse;whiteSpace=wrap;html=1;" vertex="1" parent="1">
          <mxGeometry x="530" y="710" width="80" height="50" as="geometry" />
        </mxCell>
        <mxCell id="Uzjwu6fWjrmcTb8bUyvd-29" style="edgeStyle=orthogonalEdgeStyle;rounded=0;orthogonalLoop=1;jettySize=auto;html=1;exitX=0.5;exitY=0;exitDx=0;exitDy=0;entryX=0.5;entryY=1;entryDx=0;entryDy=0;" edge="1" parent="1" source="Uzjwu6fWjrmcTb8bUyvd-25" target="Uzjwu6fWjrmcTb8bUyvd-21">
          <mxGeometry relative="1" as="geometry" />
        </mxCell>
        <mxCell id="Uzjwu6fWjrmcTb8bUyvd-25" value="Modifier&lt;br&gt;Utilisateur" style="ellipse;whiteSpace=wrap;html=1;" vertex="1" parent="1">
          <mxGeometry x="430" y="710" width="80" height="50" as="geometry" />
        </mxCell>
        <mxCell id="Uzjwu6fWjrmcTb8bUyvd-30" style="edgeStyle=orthogonalEdgeStyle;rounded=0;orthogonalLoop=1;jettySize=auto;html=1;exitX=0.5;exitY=0;exitDx=0;exitDy=0;entryX=0;entryY=0.5;entryDx=0;entryDy=0;" edge="1" parent="1" source="Uzjwu6fWjrmcTb8bUyvd-26" target="Uzjwu6fWjrmcTb8bUyvd-21">
          <mxGeometry relative="1" as="geometry" />
        </mxCell>
        <mxCell id="Uzjwu6fWjrmcTb8bUyvd-26" value="Creer&lt;div&gt;&lt;span style=&quot;background-color: transparent; color: light-dark(rgb(0, 0, 0), rgb(255, 255, 255));&quot;&gt;&amp;nbsp;Utilisateur&lt;/span&gt;&lt;/div&gt;" style="ellipse;whiteSpace=wrap;html=1;" vertex="1" parent="1">
          <mxGeometry x="330" y="710" width="80" height="50" as="geometry" />
        </mxCell>
        <mxCell id="Uzjwu6fWjrmcTb8bUyvd-32" value="&amp;lt;&amp;lt;include&amp;gt;&amp;gt;" style="html=1;verticalAlign=bottom;labelBackgroundColor=none;endArrow=open;endFill=0;dashed=1;rounded=0;exitX=0.5;exitY=1;exitDx=0;exitDy=0;entryX=0;entryY=0.5;entryDx=0;entryDy=0;" edge="1" parent="1" source="Uzjwu6fWjrmcTb8bUyvd-4" target="Uzjwu6fWjrmcTb8bUyvd-17">
          <mxGeometry width="160" relative="1" as="geometry">
            <mxPoint x="300" y="470" as="sourcePoint" />
            <mxPoint x="460" y="470" as="targetPoint" />
          </mxGeometry>
        </mxCell>
        <mxCell id="Uzjwu6fWjrmcTb8bUyvd-33" value="&amp;lt;&amp;lt;include&amp;gt;&amp;gt;" style="html=1;verticalAlign=bottom;labelBackgroundColor=none;endArrow=open;endFill=0;dashed=1;rounded=0;exitX=0.5;exitY=1;exitDx=0;exitDy=0;entryX=0;entryY=0.5;entryDx=0;entryDy=0;" edge="1" parent="1" source="Uzjwu6fWjrmcTb8bUyvd-4" target="Uzjwu6fWjrmcTb8bUyvd-15">
          <mxGeometry width="160" relative="1" as="geometry">
            <mxPoint x="310" y="260" as="sourcePoint" />
            <mxPoint x="400" y="320" as="targetPoint" />
          </mxGeometry>
        </mxCell>
        <mxCell id="Uzjwu6fWjrmcTb8bUyvd-34" value="&amp;lt;&amp;lt;include&amp;gt;&amp;gt;" style="html=1;verticalAlign=bottom;labelBackgroundColor=none;endArrow=open;endFill=0;dashed=1;rounded=0;entryX=0;entryY=0.5;entryDx=0;entryDy=0;exitX=0.5;exitY=1;exitDx=0;exitDy=0;" edge="1" parent="1" source="Uzjwu6fWjrmcTb8bUyvd-4" target="Uzjwu6fWjrmcTb8bUyvd-16">
          <mxGeometry width="160" relative="1" as="geometry">
            <mxPoint x="340" y="130" as="sourcePoint" />
            <mxPoint x="420" y="430" as="targetPoint" />
          </mxGeometry>
        </mxCell>
        <mxCell id="Uzjwu6fWjrmcTb8bUyvd-35" value="&amp;lt;&amp;lt;include&amp;gt;&amp;gt;" style="html=1;verticalAlign=bottom;labelBackgroundColor=none;endArrow=open;endFill=0;dashed=1;rounded=0;entryX=-0.018;entryY=0.663;entryDx=0;entryDy=0;exitX=0.5;exitY=1;exitDx=0;exitDy=0;entryPerimeter=0;" edge="1" parent="1" source="Uzjwu6fWjrmcTb8bUyvd-4" target="Uzjwu6fWjrmcTb8bUyvd-19">
          <mxGeometry width="160" relative="1" as="geometry">
            <mxPoint x="320" y="310" as="sourcePoint" />
            <mxPoint x="410" y="528" as="targetPoint" />
          </mxGeometry>
        </mxCell>
        <mxCell id="Uzjwu6fWjrmcTb8bUyvd-36" value="&amp;lt;&amp;lt;include&amp;gt;&amp;gt;" style="html=1;verticalAlign=bottom;labelBackgroundColor=none;endArrow=open;endFill=0;dashed=1;rounded=0;entryX=0;entryY=0.5;entryDx=0;entryDy=0;exitX=0.5;exitY=1;exitDx=0;exitDy=0;" edge="1" parent="1" source="Uzjwu6fWjrmcTb8bUyvd-4" target="Uzjwu6fWjrmcTb8bUyvd-20">
          <mxGeometry width="160" relative="1" as="geometry">
            <mxPoint x="300" y="480" as="sourcePoint" />
            <mxPoint x="389" y="798" as="targetPoint" />
          </mxGeometry>
        </mxCell>
        <mxCell id="Uzjwu6fWjrmcTb8bUyvd-37" value="&amp;lt;&amp;lt;include&amp;gt;&amp;gt;" style="html=1;verticalAlign=bottom;labelBackgroundColor=none;endArrow=open;endFill=0;dashed=1;rounded=0;entryX=0;entryY=0;entryDx=0;entryDy=0;exitX=0.5;exitY=1;exitDx=0;exitDy=0;" edge="1" parent="1" source="Uzjwu6fWjrmcTb8bUyvd-4" target="Uzjwu6fWjrmcTb8bUyvd-21">
          <mxGeometry width="160" relative="1" as="geometry">
            <mxPoint x="290" y="120" as="sourcePoint" />
            <mxPoint x="520" y="795" as="targetPoint" />
          </mxGeometry>
        </mxCell>
      </root>
    </mxGraphModel>
  </diagram>
</mxfile>
